<svg width="72" height="63" viewBox="0 0 72 63" fill="none" xmlns="http://www.w3.org/2000/svg">
<g clip-path="url(#clip0_84_15)">
<ellipse cx="36" cy="34.5" rx="25" ry="17.5" fill="#F4F4F4"/>
<path d="M12.1554 13.2141C12.1554 11.6745 13.8221 10.7122 15.1554 11.482L35.4054 23.1734C36.7388 23.9432 36.7388 25.8677 35.4054 26.6375L15.1554 38.3288C13.8221 39.0986 12.1554 38.1364 12.1554 36.5968L12.1554 13.2141Z" fill="#F4F4F4"/>
<path d="M56.4988 11.3254C57.8322 10.5556 59.4988 11.5178 59.4988 13.0574L59.4988 36.4401C59.4988 37.9797 57.8322 38.942 56.4988 38.1722L36.2488 26.4808C34.9155 25.711 34.9155 23.7865 36.2488 23.0167L56.4988 11.3254Z" fill="#F4F4F4"/>
<path d="M43.816 46.584L37 42.48L37.72 40.992C37.832 41.2 37.912 41.416 37.96 41.64C38.008 41.88 38.032 42.12 38.032 42.36C38.048 42.952 37.976 43.528 37.816 44.088C37.672 44.648 37.408 45.152 37.024 45.6C36.656 46.048 36.168 46.4 35.56 46.656C34.952 46.928 34.184 47.064 33.256 47.064C32.136 47.064 31.168 46.808 30.352 46.296C29.536 45.784 28.904 45.104 28.456 44.256C28.024 43.408 27.808 42.472 27.808 41.448C27.808 40.696 27.96 39.92 28.264 39.12C28.584 38.336 29.008 37.696 29.536 37.2L31.648 38.52C31.296 38.808 30.976 39.216 30.688 39.744C30.416 40.272 30.28 40.824 30.28 41.4C30.28 41.944 30.4 42.44 30.64 42.888C30.896 43.352 31.256 43.72 31.72 43.992C32.2 44.28 32.768 44.424 33.424 44.424C34.288 44.424 34.968 44.168 35.464 43.656C35.976 43.16 36.232 42.464 36.232 41.568C36.232 41.104 36.2 40.72 36.136 40.416C36.072 40.112 36 39.84 35.92 39.6L35.992 39.504L41.68 43.056L41.368 43.824V38.208H43.816V46.584Z" fill="#242424"/>
<path d="M27.864 30.408C27.864 31.208 27.648 31.968 27.216 32.688C26.784 33.408 26.184 34 25.416 34.464C24.648 34.912 23.784 35.136 22.824 35.136C21.656 35.136 20.656 34.872 19.824 34.344C18.992 33.816 18.352 33.128 17.904 32.28C17.44 31.416 17.208 30.504 17.208 29.544C17.208 28.456 17.448 27.48 17.928 26.616C18.408 25.752 19.072 25.064 19.92 24.552C20.768 24.04 21.736 23.784 22.824 23.784C24.088 23.784 25.24 24.016 26.28 24.48C27.304 24.944 28.24 25.56 29.088 26.328C29.92 27.096 30.688 27.944 31.392 28.872C32.08 29.8 32.728 30.728 33.336 31.656L31.464 33.36C30.808 32.032 30.112 30.88 29.376 29.904C28.624 28.928 27.872 28.168 27.12 27.624C26.368 27.064 25.656 26.744 24.984 26.664L25.008 25.968C25.92 26.432 26.624 27 27.12 27.672C27.616 28.328 27.864 29.24 27.864 30.408ZM25.704 29.448C25.704 28.568 25.448 27.84 24.936 27.264C24.408 26.688 23.744 26.4 22.944 26.4H22.464C21.92 26.416 21.432 26.56 21 26.832C20.552 27.104 20.192 27.464 19.92 27.912C19.648 28.36 19.512 28.872 19.512 29.448C19.512 30.008 19.64 30.52 19.896 30.984C20.152 31.448 20.52 31.816 21 32.088C21.464 32.344 22.016 32.472 22.656 32.472C23.264 32.472 23.8 32.336 24.264 32.064C24.728 31.792 25.088 31.432 25.344 30.984C25.584 30.52 25.704 30.008 25.704 29.448Z" fill="#242424"/>
<path d="M44.136 28.592C44.136 27.792 44.352 27.032 44.784 26.312C45.216 25.592 45.816 25 46.584 24.536C47.352 24.088 48.216 23.864 49.176 23.864C50.344 23.864 51.344 24.128 52.176 24.656C53.008 25.184 53.648 25.872 54.096 26.72C54.56 27.584 54.792 28.496 54.792 29.456C54.792 30.544 54.552 31.52 54.072 32.384C53.592 33.248 52.928 33.936 52.08 34.448C51.232 34.96 50.264 35.216 49.176 35.216C47.912 35.216 46.76 34.984 45.72 34.52C44.696 34.056 43.76 33.44 42.912 32.672C42.08 31.904 41.312 31.056 40.608 30.128C39.92 29.2 39.272 28.272 38.664 27.344L40.536 25.64C41.192 26.968 41.888 28.12 42.624 29.096C43.376 30.072 44.128 30.832 44.88 31.376C45.632 31.936 46.344 32.256 47.016 32.336L46.992 33.032C46.08 32.568 45.376 32 44.88 31.328C44.384 30.672 44.136 29.76 44.136 28.592ZM46.296 29.552C46.296 30.432 46.552 31.16 47.064 31.736C47.592 32.312 48.256 32.6 49.056 32.6H49.536C50.08 32.584 50.568 32.44 51 32.168C51.448 31.896 51.808 31.536 52.08 31.088C52.352 30.64 52.488 30.128 52.488 29.552C52.488 28.992 52.36 28.48 52.104 28.016C51.848 27.552 51.48 27.184 51 26.912C50.536 26.656 49.984 26.528 49.344 26.528C48.736 26.528 48.2 26.664 47.736 26.936C47.272 27.208 46.912 27.568 46.656 28.016C46.416 28.48 46.296 28.992 46.296 29.552Z" fill="#242424"/>
</g>
<defs>
<clipPath id="clip0_84_15">
<rect width="56" height="47" fill="white" transform="translate(8 8)"/>
</clipPath>
</defs>
</svg>
