<svg width="798" height="532" viewBox="0 0 798 532" fill="none" xmlns="http://www.w3.org/2000/svg">
<g clip-path="url(#clip0_15_1285)">
<g clip-path="url(#clip1_15_1285)">
<rect width="798" height="532" fill="#1A1A1A"/>
<g clip-path="url(#clip2_15_1285)">
<rect width="6" height="750" transform="translate(399.33 -156) rotate(45)" fill="#6E13C4"/>
<rect width="18" height="750" transform="translate(414.886 -140.444) rotate(45)" fill="#6E13C4"/>
<rect width="12" height="750" transform="translate(438.928 -116.402) rotate(45)" fill="#6E13C4"/>
</g>
<g clip-path="url(#clip3_15_1285)">
<rect width="12" height="750" transform="translate(881.33 208) rotate(45)" fill="#6E13C4"/>
<rect width="18" height="750" transform="translate(901.129 227.799) rotate(45)" fill="#6E13C4"/>
<rect width="6" height="750" transform="translate(925.171 251.841) rotate(45)" fill="#6E13C4"/>
</g>
</g>
<rect x="322.814" y="139.618" width="150" height="137.25" rx="4" transform="rotate(-1 322.814 139.618)" fill="white"/>
<mask id="mask0_15_1285" style="mask-type:luminance" maskUnits="userSpaceOnUse" x="339" y="156" width="120" height="101">
<path d="M456.47 156.955L339.821 158.991L341.53 256.892L458.179 254.856L456.47 156.955Z" fill="white"/>
</mask>
<g mask="url(#mask0_15_1285)">
<path d="M399.745 249.625C428.506 249.123 451.536 232.396 451.184 212.264C450.833 192.131 427.233 176.218 398.473 176.72C369.712 177.222 346.682 193.949 347.034 214.082C347.385 234.214 370.985 250.127 399.745 249.625Z" fill="#1A1A1A"/>
<path d="M348.666 169.701C348.61 166.494 352.047 164.429 354.853 165.984L397.459 189.601C400.264 191.156 400.334 195.164 397.585 196.816L355.829 221.906C353.079 223.558 349.573 221.614 349.517 218.407L348.666 169.701Z" fill="#1A1A1A"/>
<path d="M440.966 164.154C443.715 162.502 447.222 164.446 447.278 167.653L448.128 216.359C448.184 219.566 444.747 221.632 441.942 220.076L399.336 196.459C396.53 194.904 396.461 190.896 399.21 189.244L440.966 164.154Z" fill="#1A1A1A"/>
<path d="M415.829 238.06L401.482 229.759L402.928 226.633C403.169 227.062 403.343 227.509 403.451 227.974C403.56 228.472 403.619 228.971 403.628 229.471C403.682 230.704 403.553 231.906 403.24 233.078C402.961 234.25 402.429 235.31 401.646 236.257C400.895 237.203 399.892 237.954 398.635 238.51C397.378 239.098 395.783 239.41 393.85 239.443C391.517 239.484 389.491 238.986 387.773 237.949C386.055 236.912 384.714 235.519 383.75 233.769C382.819 232.018 382.335 230.076 382.298 227.943C382.27 226.377 382.559 224.755 383.163 223.077C383.801 221.433 384.661 220.084 385.743 219.032L390.19 221.705C389.467 222.317 388.815 223.179 388.235 224.289C387.687 225.399 387.424 226.554 387.445 227.753C387.465 228.886 387.733 229.915 388.249 230.84C388.799 231.797 389.562 232.55 390.539 233.1C391.549 233.683 392.738 233.962 394.104 233.938C395.904 233.907 397.311 233.349 398.325 232.264C399.374 231.212 399.882 229.753 399.849 227.887C399.832 226.92 399.752 226.122 399.607 225.491C399.463 224.86 399.303 224.296 399.128 223.799L399.274 223.596L411.252 230.788L410.63 232.399L410.426 220.701L415.525 220.612L415.829 238.06Z" fill="white"/>
<path d="M382.013 204.945C382.042 206.611 381.62 208.202 380.746 209.717C379.872 211.233 378.644 212.488 377.061 213.482C375.478 214.443 373.686 214.941 371.686 214.976C369.253 215.019 367.161 214.505 365.409 213.436C363.656 212.366 362.298 210.956 361.334 209.206C360.336 207.423 359.82 205.532 359.785 203.532C359.745 201.266 360.21 199.224 361.178 197.407C362.147 195.59 363.505 194.133 365.252 193.035C367 191.938 369.007 191.37 371.274 191.33C373.907 191.284 376.315 191.725 378.498 192.654C380.648 193.583 382.62 194.832 384.414 196.401C386.175 197.971 387.806 199.709 389.306 201.617C390.773 203.525 392.156 205.434 393.457 207.345L389.619 210.963C388.204 208.22 386.713 205.846 385.144 203.84C383.542 201.834 381.948 200.278 380.362 199.173C378.775 198.033 377.28 197.393 375.878 197.251L375.902 195.8C377.819 196.733 379.306 197.891 380.364 199.273C381.421 200.621 381.97 202.512 382.013 204.945ZM377.479 203.023C377.447 201.19 376.887 199.683 375.799 198.502C374.679 197.321 373.285 196.746 371.619 196.775L370.619 196.792C369.486 196.845 368.475 197.163 367.585 197.745C366.662 198.328 365.925 199.091 365.375 200.034C364.824 200.977 364.56 202.049 364.581 203.249C364.601 204.415 364.886 205.477 365.436 206.434C365.986 207.391 366.766 208.145 367.776 208.694C368.752 209.21 369.906 209.457 371.24 209.433C372.506 209.411 373.618 209.108 374.574 208.525C375.531 207.942 376.268 207.179 376.785 206.236C377.268 205.261 377.499 204.19 377.479 203.023Z" fill="white"/>
<path d="M415.842 200.57C415.813 198.904 416.235 197.313 417.109 195.797C417.982 194.282 419.211 193.027 420.793 192.033C422.377 191.071 424.168 190.573 426.168 190.539C428.601 190.496 430.694 191.01 432.446 192.079C434.198 193.149 435.556 194.559 436.52 196.309C437.518 198.092 438.035 199.983 438.07 201.983C438.109 204.249 437.645 206.291 436.676 208.108C435.708 209.925 434.35 211.382 432.602 212.48C430.854 213.577 428.847 214.145 426.581 214.185C423.948 214.231 421.54 213.789 419.357 212.861C417.207 211.931 415.235 210.682 413.44 209.113C411.679 207.544 410.049 205.805 408.549 203.898C407.082 201.99 405.698 200.081 404.398 198.17L408.235 194.552C409.65 197.294 411.142 199.669 412.71 201.675C414.312 203.681 415.906 205.237 417.493 206.342C419.079 207.481 420.574 208.122 421.977 208.264L421.952 209.715C420.036 208.782 418.549 207.624 417.491 206.242C416.434 204.894 415.884 203.003 415.842 200.57ZM420.376 202.491C420.408 204.324 420.968 205.832 422.055 207.013C423.176 208.193 424.569 208.769 426.236 208.74L427.236 208.723C428.368 208.67 429.38 208.352 430.27 207.77C431.193 207.187 431.93 206.424 432.48 205.481C433.03 204.538 433.295 203.466 433.274 202.266C433.254 201.1 432.968 200.038 432.418 199.081C431.868 198.124 431.088 197.37 430.078 196.821C429.103 196.305 427.948 196.058 426.615 196.082C425.349 196.104 424.237 196.406 423.28 196.99C422.324 197.573 421.587 198.336 421.07 199.279C420.587 200.254 420.356 201.325 420.376 202.491Z" fill="white"/>
</g>
<rect x="183.51" y="292.847" width="433" height="112" rx="4" transform="rotate(1 183.51 292.847)" fill="#6E13C4"/>
<path d="M221.587 319.051L252.11 319.584L251.995 326.175L228.319 325.762L228.087 339.008L249.14 339.375L249.025 345.966L227.972 345.599L227.738 359.037L252.31 359.466L252.195 366.057L220.776 365.508L221.587 319.051ZM259.929 349.357L271.831 349.565L271.731 355.324L259.829 355.116L259.929 349.357ZM316.438 363.658C315.747 364.115 314.713 364.673 313.336 365.332C312.002 365.949 310.414 366.476 308.572 366.913C306.772 367.351 304.784 367.529 302.609 367.449C298.984 367.343 295.732 366.646 292.852 365.358C290.016 364.071 287.614 362.344 285.646 360.176C283.679 357.965 282.165 355.464 281.104 352.671C280.087 349.837 279.606 346.842 279.661 343.685C279.722 340.187 280.332 336.997 281.492 334.115C282.653 331.191 284.276 328.659 286.361 326.519C288.49 324.38 290.951 322.737 293.744 321.591C296.581 320.446 299.663 319.902 302.99 319.96C305.849 320.01 308.423 320.439 310.713 321.247C313.003 322.055 314.929 322.985 316.489 324.036L313.69 330.389C312.468 329.514 310.946 328.676 309.125 327.877C307.348 327.035 305.35 326.594 303.131 326.556C300.956 326.518 298.879 326.93 296.901 327.791C294.966 328.611 293.238 329.797 291.718 331.349C290.241 332.86 289.057 334.653 288.167 336.728C287.278 338.761 286.813 340.993 286.77 343.425C286.727 345.899 287.071 348.188 287.803 350.292C288.534 352.396 289.59 354.228 290.971 355.788C292.395 357.349 294.102 358.574 296.092 359.462C298.082 360.35 300.336 360.816 302.852 360.86C305.241 360.902 307.338 360.576 309.143 359.882C310.99 359.189 312.497 358.383 313.665 357.464L316.438 363.658ZM323.098 353.596C323.145 350.909 323.827 348.51 325.144 346.399C326.462 344.246 328.262 342.57 330.545 341.372C332.827 340.175 335.419 339.601 338.32 339.652C341.264 339.703 343.834 340.367 346.03 341.643C348.227 342.919 349.904 344.655 351.06 346.851C352.26 349.006 352.837 351.427 352.79 354.115C352.743 356.802 352.082 359.223 350.807 361.377C349.574 363.532 347.838 365.23 345.597 366.471C343.357 367.669 340.744 368.243 337.758 368.19C334.9 368.14 332.35 367.52 330.109 366.329C327.911 365.138 326.169 363.465 324.884 361.309C323.642 359.111 323.047 356.54 323.098 353.596ZM329.752 353.776C329.723 355.44 330.059 356.961 330.761 358.339C331.463 359.674 332.425 360.758 333.648 361.59C334.872 362.379 336.252 362.787 337.788 362.814C339.366 362.842 340.781 362.482 342.031 361.736C343.282 360.947 344.261 359.897 344.967 358.587C345.716 357.234 346.105 355.726 346.134 354.062C346.163 352.399 345.826 350.899 345.124 349.564C344.465 348.23 343.523 347.146 342.3 346.314C341.077 345.482 339.677 345.052 338.098 345.025C336.52 344.997 335.105 345.378 333.854 346.167C332.602 346.956 331.602 348.027 330.853 349.379C330.147 350.69 329.781 352.155 329.752 353.776ZM366.7 341.235L367.176 347.005L366.927 346.552C367.986 344.565 369.421 343.032 371.232 341.955C373.044 340.834 375.123 340.294 377.47 340.335C378.92 340.361 380.217 340.618 381.361 341.107C382.547 341.597 383.517 342.276 384.27 343.142C385.023 344.009 385.495 345.084 385.686 346.368L385.362 346.554C386.461 344.695 387.895 343.248 389.663 342.212C391.474 341.134 393.382 340.613 395.387 340.648C397.989 340.693 400.045 341.476 401.555 342.996C403.107 344.517 403.884 346.45 403.886 348.798L403.539 368.698L397.012 368.585L397.315 351.179C397.296 349.856 396.995 348.741 396.414 347.835C395.875 346.929 394.881 346.421 393.432 346.311C391.896 346.284 390.523 346.729 389.312 347.647C388.144 348.565 387.226 349.766 386.56 351.248C385.895 352.729 385.525 354.323 385.453 356.029L385.237 368.379L378.646 368.264L378.95 350.859C378.931 349.535 378.63 348.421 378.048 347.514C377.467 346.608 376.43 346.099 374.939 345.988C373.403 345.961 372.051 346.407 370.883 347.325C369.714 348.244 368.797 349.465 368.13 350.99C367.507 352.473 367.181 354.046 367.152 355.709L366.936 368.06L360.345 367.945L360.813 341.133L366.7 341.235ZM420.005 342.166L420.48 347.935L420.232 347.483C421.291 345.495 422.726 343.963 424.537 342.885C426.349 341.764 428.428 341.225 430.774 341.266C432.224 341.291 433.521 341.548 434.665 342.038C435.851 342.528 436.821 343.206 437.574 344.073C438.327 344.939 438.799 346.014 438.99 347.298L438.667 347.484C439.766 345.626 441.199 344.179 442.967 343.143C444.778 342.065 446.686 341.543 448.691 341.578C451.293 341.624 453.349 342.406 454.859 343.926C456.412 345.447 457.189 347.381 457.19 349.728L456.843 369.629L450.316 369.515L450.62 352.11C450.6 350.786 450.3 349.672 449.718 348.765C449.179 347.86 448.185 347.352 446.736 347.241C445.2 347.214 443.827 347.66 442.616 348.577C441.448 349.496 440.531 350.696 439.865 352.178C439.199 353.66 438.83 355.254 438.757 356.959L438.542 369.309L431.951 369.194L432.255 351.789C432.235 350.466 431.934 349.351 431.353 348.445C430.771 347.539 429.735 347.03 428.243 346.918C426.707 346.892 425.355 347.337 424.187 348.256C423.019 349.174 422.101 350.396 421.435 351.92C420.811 353.403 420.485 354.976 420.456 356.64L420.24 368.99L413.649 368.875L414.117 342.063L420.005 342.166ZM479.549 370.665C476.435 370.611 473.779 369.967 471.581 368.734C469.385 367.458 467.708 365.743 466.55 363.589C465.394 361.393 464.84 358.908 464.888 356.135C464.934 353.49 465.637 351.113 466.997 349.003C468.4 346.851 470.243 345.155 472.527 343.915C474.853 342.675 477.402 342.08 480.175 342.128C483.758 342.19 486.705 343.287 489.015 345.419C491.367 347.551 492.916 350.501 493.661 354.269L471.709 361.439L470.24 357.573L487.819 351.607L486.46 352.415C485.971 351.084 485.181 349.918 484.089 348.917C482.998 347.874 481.492 347.336 479.573 347.302C478.037 347.275 476.644 347.635 475.393 348.381C474.186 349.086 473.208 350.093 472.46 351.403C471.755 352.671 471.387 354.179 471.357 355.928C471.325 357.72 471.661 359.305 472.362 360.682C473.107 362.018 474.112 363.081 475.379 363.872C476.688 364.662 478.153 365.072 479.774 365.1C480.926 365.121 482.017 364.926 483.049 364.517C484.123 364.11 485.134 363.594 486.084 362.97L489.007 367.886C487.583 368.757 486.035 369.456 484.361 369.981C482.731 370.465 481.127 370.693 479.549 370.665ZM507.054 343.685L507.56 351.375L507.258 350.346C508.011 348.737 509.059 347.369 510.402 346.24C511.744 345.111 513.125 344.261 514.543 343.688C516.005 343.073 517.226 342.775 518.207 342.792L517.773 349.313C515.728 349.149 513.929 349.502 512.378 350.371C510.869 351.241 509.675 352.415 508.796 353.893C507.917 355.371 507.462 356.964 507.432 358.67L507.226 370.508L500.699 370.394L501.167 343.583L507.054 343.685ZM546.062 368.69C544.851 369.65 543.387 370.393 541.671 370.918C539.997 371.443 538.307 371.691 536.601 371.661C533.658 371.61 531.065 370.988 528.824 369.797C526.626 368.607 524.927 366.955 523.726 364.843C522.525 362.732 521.95 360.225 522.001 357.324C522.051 354.466 522.755 352.003 524.114 349.936C525.474 347.826 527.251 346.235 529.446 345.164C531.642 344.05 533.956 343.515 536.388 343.557C538.606 343.596 540.563 343.929 542.259 344.556C543.955 345.183 545.412 346.04 546.631 347.129L543.292 351.359C542.578 350.749 541.67 350.2 540.569 349.711C539.51 349.223 538.277 348.967 536.87 348.942C535.377 348.916 534.005 349.276 532.754 350.023C531.504 350.726 530.505 351.733 529.757 353.043C529.009 354.31 528.621 355.776 528.592 357.439C528.565 359.018 528.901 360.496 529.603 361.874C530.348 363.209 531.375 364.273 532.684 365.064C533.993 365.855 535.5 366.265 537.207 366.295C538.316 366.314 539.342 366.183 540.286 365.901C541.231 365.576 542.071 365.121 542.806 364.536L546.062 368.69ZM566.161 372.177C563.046 372.123 560.391 371.479 558.193 370.246C555.996 368.97 554.319 367.255 553.162 365.101C552.006 362.905 551.452 360.42 551.5 357.647C551.546 355.002 552.249 352.625 553.609 350.515C555.012 348.363 556.855 346.667 559.138 345.427C561.464 344.187 564.014 343.591 566.787 343.64C570.37 343.702 573.317 344.799 575.627 346.931C577.979 349.063 579.528 352.013 580.273 355.781L558.32 362.951L556.852 359.085L574.43 353.119L573.072 353.927C572.583 352.596 571.793 351.43 570.701 350.429C569.61 349.386 568.104 348.848 566.184 348.814C564.649 348.787 563.255 349.147 562.005 349.893C560.798 350.598 559.82 351.605 559.072 352.915C558.367 354.182 557.999 355.691 557.969 357.44C557.937 359.232 558.272 360.816 558.974 362.194C559.719 363.53 560.724 364.593 561.991 365.383C563.3 366.174 564.765 366.584 566.386 366.612C567.538 366.632 568.629 366.438 569.66 366.029C570.734 365.621 571.746 365.106 572.696 364.482L575.619 369.398C574.195 370.269 572.647 370.968 570.973 371.493C569.343 371.977 567.739 372.205 566.161 372.177Z" fill="white"/>
</g>
<defs>
<clipPath id="clip0_15_1285">
<rect width="798" height="532" fill="white"/>
</clipPath>
<clipPath id="clip1_15_1285">
<rect width="798" height="532" fill="white"/>
</clipPath>
<clipPath id="clip2_15_1285">
<rect width="68" height="750" fill="white" transform="translate(399.33 -156) rotate(45)"/>
</clipPath>
<clipPath id="clip3_15_1285">
<rect width="68" height="750" fill="white" transform="translate(881.33 208) rotate(45)"/>
</clipPath>
</defs>
</svg>
