<?xml version="1.0" encoding="UTF-8" standalone="no"?>
<svg
   xmlns:dc="http://purl.org/dc/elements/1.1/"
   xmlns:cc="http://creativecommons.org/ns#"
   xmlns:rdf="http://www.w3.org/1999/02/22-rdf-syntax-ns#"
   xmlns:svg="http://www.w3.org/2000/svg"
   xmlns="http://www.w3.org/2000/svg"
   xmlns:sodipodi="http://sodipodi.sourceforge.net/DTD/sodipodi-0.dtd"
   xmlns:inkscape="http://www.inkscape.org/namespaces/inkscape"
   id="Layer_1"
   data-name="Layer 1"
   viewBox="0 0 139.72 33.32"
   version="1.1"
   sodipodi:docname="amd-logo.svg"
   inkscape:version="0.92.2 (5c3e80d, 2017-08-06)">
  <metadata
     id="metadata21">
    <rdf:RDF>
      <cc:Work
         rdf:about="">
        <dc:format>image/svg+xml</dc:format>
        <dc:type
           rdf:resource="http://purl.org/dc/dcmitype/StillImage" />
      </cc:Work>
    </rdf:RDF>
  </metadata>
  <sodipodi:namedview
     pagecolor="#ffffff"
     bordercolor="#666666"
     borderopacity="1"
     objecttolerance="10"
     gridtolerance="10"
     guidetolerance="10"
     inkscape:pageopacity="0"
     inkscape:pageshadow="2"
     inkscape:window-width="1600"
     inkscape:window-height="837"
     id="namedview19"
     showgrid="false"
     inkscape:zoom="2.2688233"
     inkscape:cx="69.860001"
     inkscape:cy="-0.97028422"
     inkscape:window-x="-8"
     inkscape:window-y="-8"
     inkscape:window-maximized="1"
     inkscape:current-layer="Layer_1" />
  <defs
     id="defs4">
    <style
       id="style2">.cls-1{fill:#fff;}</style>
  </defs>
  <title
     id="title6">AMD-logo-white-v2</title>
  <path
     class="cls-1"
     d="M33,31.14H25.21l-2.37-5.72H9.92L7.76,31.14H.14L11.78,2.26h8.34Zm-16.89-22L11.83,20.39h8.89Z"
     transform="translate(-0.14 -0.03)"
     id="path8"
     style="fill:#000000"
     inkscape:export-filename="G:\Users\suitedoalex\sites\amd-logo-5.png"
     inkscape:export-xdpi="137.41769"
     inkscape:export-ydpi="137.41769" />
  <path
     class="cls-1"
     d="M61.1,2.26h6.27V31.14h-7.2v-18l-7.79,9.06h-1.1L43.49,13.1v18h-7.2V2.26h6.27L51.83,13Z"
     transform="translate(-0.14 -0.03)"
     id="path10"
     style="fill:#000000"
     inkscape:export-filename="G:\Users\suitedoalex\sites\amd-logo-5.png"
     inkscape:export-xdpi="137.41769"
     inkscape:export-ydpi="137.41769" />
  <path
     class="cls-1"
     d="M85.61,2.26c10.54,0,16,6.56,16,14.48,0,8.3-5.25,14.4-16.77,14.4H72.86V2.26ZM80.06,25.85h4.7c7.24,0,9.4-4.91,9.4-9.15,0-5-2.67-9.15-9.48-9.15H80.06Z"
     transform="translate(-0.14 -0.03)"
     id="path12"
     style="fill:#000000"
     inkscape:export-filename="G:\Users\suitedoalex\sites\amd-logo-5.png"
     inkscape:export-xdpi="137.41769"
     inkscape:export-ydpi="137.41769" />
  <polygon
     class="cls-1"
     points="130.64 9.08 115.75 9.08 106.68 0 139.72 0 139.72 33.05 130.64 23.97 130.64 9.08"
     id="polygon14"
     style="fill:#000000"
     inkscape:export-filename="G:\Users\suitedoalex\sites\amd-logo-5.png"
     inkscape:export-xdpi="137.41769"
     inkscape:export-ydpi="137.41769" />
  <polygon
     class="cls-1"
     points="115.74 23.98 115.74 10.9 106.4 20.24 106.4 33.33 119.48 33.33 128.82 23.98 115.74 23.98"
     id="polygon16"
     style="fill:#000000"
     inkscape:export-filename="G:\Users\suitedoalex\sites\amd-logo-5.png"
     inkscape:export-xdpi="137.41769"
     inkscape:export-ydpi="137.41769" />
</svg>
