<?xml version="1.0" encoding="UTF-8" standalone="no"?>
<!-- Generator: Adobe Illustrator 23.0.4, SVG Export Plug-In . SVG Version: 6.00 Build 0)  -->

<svg
   xmlns:dc="http://purl.org/dc/elements/1.1/"
   xmlns:cc="http://creativecommons.org/ns#"
   xmlns:rdf="http://www.w3.org/1999/02/22-rdf-syntax-ns#"
   xmlns:svg="http://www.w3.org/2000/svg"
   xmlns="http://www.w3.org/2000/svg"
   xmlns:sodipodi="http://sodipodi.sourceforge.net/DTD/sodipodi-0.dtd"
   xmlns:inkscape="http://www.inkscape.org/namespaces/inkscape"
   version="1.1"
   id="Layer_1"
   x="0px"
   y="0px"
   viewBox="0 0 700.00001 700.00003"
   xml:space="preserve"
   sodipodi:docname="intel-logo-2020.svg"
   width="700"
   height="700"
   inkscape:version="0.92.4 (5da689c313, 2019-01-14)"
   inkscape:export-filename="C:\Users\suitedoalex\sites\intel-footer-logo-0.png"
   inkscape:export-xdpi="561.73712"
   inkscape:export-ydpi="561.73712"><metadata
   id="metadata17"><rdf:RDF><cc:Work
       rdf:about=""><dc:format>image/svg+xml</dc:format><dc:type
         rdf:resource="http://purl.org/dc/dcmitype/StillImage" /><dc:title></dc:title></cc:Work></rdf:RDF></metadata><defs
   id="defs15" /><sodipodi:namedview
   pagecolor="#ffffff"
   bordercolor="#666666"
   borderopacity="1"
   objecttolerance="10"
   gridtolerance="10"
   guidetolerance="10"
   inkscape:pageopacity="0"
   inkscape:pageshadow="2"
   inkscape:window-width="1600"
   inkscape:window-height="837"
   id="namedview13"
   showgrid="false"
   inkscape:zoom="0.29865158"
   inkscape:cx="518.25078"
   inkscape:cy="321.47202"
   inkscape:window-x="-8"
   inkscape:window-y="-8"
   inkscape:window-maximized="1"
   inkscape:current-layer="Layer_1" />
<style
   type="text/css"
   id="style2">
	.st0{fill:#0068B5;}
</style>
<rect
   x="77.767052"
   y="247.33405"
   class="st0"
   width="39.411366"
   height="39.411366"
   id="rect4"
   style="fill:#0068b5;stroke-width:1.40253949"
   inkscape:export-filename="C:\Users\suitedoalex\sites\intel-footer-logo-4.png"
   inkscape:export-xdpi="70.527824"
   inkscape:export-ydpi="70.527824" />
<g
   id="g10"
   transform="matrix(1.4025396,0,0,1.4025396,71.17514,240.0409)"
   inkscape:export-filename="C:\Users\suitedoalex\sites\intel-footer-logo-4.png"
   inkscape:export-xdpi="70.527824"
   inkscape:export-ydpi="70.527824">
	<path
   d="M 32.1,151.6 V 50.4 H 5.5 v 101.2 z m 176.8,1 v -24.8 c -3.9,0 -7.2,-0.2 -9.6,-0.6 -2.8,-0.4 -4.9,-1.4 -6.3,-2.8 -1.4,-1.4 -2.3,-3.4 -2.8,-6 -0.4,-2.5 -0.6,-5.8 -0.6,-9.8 V 73.2 h 19.3 V 50.4 H 189.6 V 10.9 h -26.7 v 97.9 c 0,8.3 0.7,15.3 2.1,20.9 1.4,5.5 3.8,10 7.1,13.4 3.3,3.4 7.7,5.8 13,7.3 5.4,1.5 12.2,2.2 20.3,2.2 z m 152.8,-1 V 3.1 H 335 V 151.6 Z M 137.2,60.3 c -7.4,-8 -17.8,-12 -31,-12 -6.4,0 -12.2,1.3 -17.5,3.9 C 83.5,54.8 79,58.4 75.5,63 L 74,64.9 V 63.2 50.4 H 47.7 v 101.2 h 26.5 v -53.9 3.7 c 0,-0.6 0,-1.2 0,-1.8 0.3,-9.5 2.6,-16.5 7,-21 4.7,-4.8 10.4,-7.2 16.9,-7.2 7.7,0 13.6,2.4 17.5,7 3.8,4.6 5.8,11.1 5.8,19.4 v 0 0.2 0 0 53.5 h 26.9 V 94.1 c 0.1,-14.4 -3.7,-25.8 -11.1,-33.8 z m 184,40.5 c 0,-7.3 -1.3,-14.1 -3.8,-20.5 -2.6,-6.3 -6.2,-11.9 -10.7,-16.7 -4.6,-4.8 -10.1,-8.5 -16.5,-11.2 -6.4,-2.7 -13.5,-4 -21.2,-4 -7.3,0 -14.2,1.4 -20.6,4.1 -6.4,2.8 -12,6.5 -16.7,11.2 -4.7,4.7 -8.5,10.3 -11.2,16.7 -2.8,6.4 -4.1,13.3 -4.1,20.6 0,7.3 1.3,14.2 3.9,20.6 2.6,6.4 6.3,12 10.9,16.7 4.6,4.7 10.3,8.5 16.9,11.2 6.6,2.8 13.9,4.2 21.7,4.2 22.6,0 36.6,-10.3 45,-19.9 l -19.2,-14.6 c -4,4.8 -13.6,11.3 -25.6,11.3 -7.5,0 -13.7,-1.7 -18.4,-5.2 -4.7,-3.4 -7.9,-8.2 -9.6,-14.1 l -0.3,-0.9 h 79.5 z m -79.3,-9.3 c 0,-7.4 8.5,-20.3 26.8,-20.4 18.3,0 26.9,12.9 26.9,20.3 z"
   id="path6"
   inkscape:connector-curvature="0" />
	<path
   d="m 392.1,138.4 c -0.5,-1.2 -1.2,-2.2 -2.1,-3.1 -0.9,-0.9 -1.9,-1.6 -3.1,-2.1 -1.2,-0.5 -2.5,-0.8 -3.8,-0.8 -1.4,0 -2.6,0.3 -3.8,0.8 -1.2,0.5 -2.2,1.2 -3.1,2.1 -0.9,0.9 -1.6,1.9 -2.1,3.1 -0.5,1.2 -0.8,2.5 -0.8,3.8 0,1.4 0.3,2.6 0.8,3.8 0.5,1.2 1.2,2.2 2.1,3.1 0.9,0.9 1.9,1.6 3.1,2.1 1.2,0.5 2.5,0.8 3.8,0.8 1.4,0 2.6,-0.3 3.8,-0.8 1.2,-0.5 2.2,-1.2 3.1,-2.1 0.9,-0.9 1.6,-1.9 2.1,-3.1 0.5,-1.2 0.8,-2.5 0.8,-3.8 0,-1.3 -0.3,-2.6 -0.8,-3.8 z m -1.6,7 c -0.4,1 -1,1.9 -1.7,2.6 -0.7,0.7 -1.6,1.3 -2.6,1.7 -1,0.4 -2,0.6 -3.2,0.6 -1.1,0 -2.2,-0.2 -3.2,-0.6 -1,-0.4 -1.9,-1 -2.6,-1.7 -0.7,-0.7 -1.3,-1.6 -1.7,-2.6 -0.4,-1 -0.6,-2 -0.6,-3.2 0,-1.1 0.2,-2.2 0.6,-3.2 0.4,-1 1,-1.9 1.7,-2.6 0.7,-0.7 1.6,-1.3 2.6,-1.7 1,-0.4 2,-0.6 3.2,-0.6 1.1,0 2.2,0.2 3.2,0.6 1,0.4 1.9,1 2.6,1.7 0.7,0.7 1.3,1.6 1.7,2.6 0.4,1 0.6,2 0.6,3.2 0.1,1.2 -0.2,2.2 -0.6,3.2 z m -5.6,-2.4 c 0.8,-0.1 1.4,-0.4 1.9,-0.9 0.5,-0.5 0.8,-1.2 0.8,-2.2 0,-1.1 -0.3,-1.9 -1,-2.5 -0.6,-0.6 -1.7,-0.9 -3,-0.9 h -4.4 v 11.3 h 2.1 v -4.6 h 1.5 l 2.8,4.6 h 2.2 z m -1.1,-1.6 c -0.3,0 -0.6,0 -1,0 h -1.5 v -3.2 h 1.5 c 0.3,0 0.6,0 1,0 0.3,0 0.6,0.1 0.9,0.2 0.3,0.1 0.5,0.3 0.6,0.5 0.1,0.2 0.2,0.5 0.2,0.9 0,0.4 -0.1,0.7 -0.2,0.9 -0.2,0.2 -0.4,0.4 -0.6,0.5 -0.3,0.1 -0.6,0.2 -0.9,0.2 z"
   id="path8"
   inkscape:connector-curvature="0" />
</g>
<rect
   style="fill:#0071c5;fill-opacity:1;fill-rule:evenodd;stroke-width:1.27451789"
   id="rect4538"
   width="709.14331"
   height="709.14331"
   x="864.3338"
   y="-4.5716553"
   inkscape:export-filename="C:\Users\suitedoalex\sites\intel-footer-logo-5.png"
   inkscape:export-xdpi="54.149849"
   inkscape:export-ydpi="54.149849" /><rect
   x="946.5979"
   y="247.30743"
   class="st0"
   width="39.422012"
   height="39.422012"
   id="rect4-4"
   style="fill:#00c7fd;fill-opacity:1;stroke-width:1.40291822"
   inkscape:export-filename="C:\Users\suitedoalex\sites\intel-footer-logo-5.png"
   inkscape:export-xdpi="54.149849"
   inkscape:export-ydpi="54.149849" /><path
   inkscape:connector-curvature="0"
   class="st1"
   d="M 985.0386,452.69357 V 310.57785 h -37.45609 v 141.97531 h 37.45609 z m 248.0377,1.40285 v -34.7922 c -5.4722,0 -10.1019,-0.28222 -13.4692,-0.84158 -3.9276,-0.56137 -6.8742,-1.96403 -8.8386,-3.92818 -1.9642,-1.96404 -3.2256,-4.76986 -3.9265,-8.55775 -0.5604,-3.50719 -0.8355,-8.13697 -0.8355,-13.7487 v -49.52289 h 27.076 v -32.12687 h -27.076 v -55.27511 h -37.4581 v 137.34595 c 0,11.64407 0.978,21.46458 2.9454,29.32096 1.9644,7.71587 5.3307,14.0291 9.9603,18.79895 4.6297,4.77007 10.803,8.13688 18.2375,10.24141 7.5751,2.10434 17.1167,3.08642 28.4801,3.08642 z m 214.3636,-1.40285 V 244.36015 h -37.4581 V 452.69357 Z M 1132.486,324.60693 c -10.3811,-11.22326 -24.9721,-16.8349 -43.4908,-16.8349 -8.977,0 -17.2553,1.82385 -24.5503,5.47134 -7.4366,3.6476 -13.6088,8.69826 -18.6592,15.15156 l -1.9654,2.66563 v -2.38503 -18.09768 h -36.8947 v 141.97531 h 37.1769 v -75.61732 5.19085 c 0,-0.84055 0,-1.68345 0,-2.52513 0.4178,-13.32792 3.6475,-23.14833 9.8197,-29.46136 6.594,-6.7341 14.59,-10.10111 23.7098,-10.10111 10.8019,0 19.08,3.36701 24.5512,9.82042 5.3307,6.45331 8.1356,15.57245 8.1356,27.21672 v 0 0.42079 c 0,0 0,0 0,0 v 0 75.05614 h 37.7404 v -80.52759 c 0.1425,-20.20201 -5.1911,-36.19536 -15.5732,-47.41864 z m 258.1366,56.81828 c 0,-10.2413 -1.8238,-19.78113 -5.3307,-28.75987 -3.6464,-8.83825 -8.6989,-16.69463 -15.0096,-23.42862 -6.4556,-6.73391 -14.1714,-11.92487 -23.1504,-15.71276 -8.9792,-3.78788 -18.9385,-5.61164 -29.7404,-5.61164 -10.2425,0 -19.9226,1.96394 -28.9018,5.75204 -8.9782,3.92818 -16.8334,9.11884 -23.4274,15.71264 -6.5931,6.59371 -11.9258,14.45009 -15.7118,23.42862 -3.9307,8.97876 -5.7525,18.65897 -5.7525,28.90028 0,10.24121 1.8218,19.92143 5.4703,28.90007 3.6475,8.97875 8.8386,16.83492 15.2919,23.42883 6.4524,6.5937 14.4495,11.92475 23.7098,15.71264 9.2582,3.92799 19.4998,5.89223 30.4423,5.89223 31.7067,0 51.3471,-14.44998 63.1332,-27.91819 l -26.9364,-20.48251 c -5.6119,6.73391 -19.08,15.85294 -35.9146,15.85294 -10.5237,0 -19.2206,-2.38504 -25.8157,-7.29508 -6.593,-4.76997 -11.082,-11.50397 -13.4673,-19.78114 l -0.4176,-1.26266 h 111.5328 z m -111.2505,-13.04722 c 0,-10.38141 11.9236,-28.47929 37.5966,-28.61938 25.6731,0 37.7404,18.09767 37.7404,28.47908 z m 210.7181,66.35809 c -0.6929,-1.68335 -1.6842,-3.08631 -2.9455,-4.34908 -1.2634,-1.26256 -2.6664,-2.24464 -4.3506,-2.94611 -1.6821,-0.70098 -3.5068,-1.12217 -5.3296,-1.12217 -1.9642,0 -3.6484,0.42078 -5.3306,1.12217 -1.6842,0.70097 -3.086,1.68355 -4.3494,2.94611 -1.2634,1.26277 -2.2437,2.66573 -2.9456,4.34908 -0.6928,1.68345 -1.1248,3.5073 -1.1248,5.33114 0,1.96425 0.4178,3.6476 1.1248,5.33105 0.6928,1.68355 1.6822,3.08651 2.9456,4.34917 1.2634,1.26257 2.6652,2.24454 4.3494,2.94613 1.6822,0.70096 3.5069,1.12235 5.3306,1.12235 1.9644,0 3.6475,-0.4218 5.3296,-1.12235 1.6842,-0.70098 3.0872,-1.68356 4.3506,-2.94613 1.2613,-1.26266 2.2446,-2.66562 2.9455,-4.34917 0.6927,-1.68345 1.1227,-3.50719 1.1227,-5.33105 0,-1.82384 -0.4177,-3.64769 -1.1227,-5.33114 z m -2.2456,9.82051 c -0.5604,1.40296 -1.4009,2.66552 -2.3841,3.6477 -0.9883,0.98218 -2.2435,1.82374 -3.6485,2.38484 -1.403,0.56137 -2.806,0.84156 -4.4861,0.84156 -1.5446,0 -3.0881,-0.28222 -4.491,-0.84156 -1.403,-0.56242 -2.6653,-1.40276 -3.6475,-2.38484 -0.9782,-0.98218 -1.8237,-2.24474 -2.3841,-3.6477 -0.5604,-1.40295 -0.8355,-2.80581 -0.8355,-4.48937 0,-1.54316 0.2751,-3.08651 0.8355,-4.48938 0.5604,-1.40305 1.4019,-2.66541 2.3841,-3.64758 0.9882,-0.98218 2.2445,-1.82374 3.6475,-2.38484 1.4029,-0.5624 2.8059,-0.84156 4.491,-0.84156 1.5417,0 3.0831,0.28222 4.4861,0.84156 1.405,0.5614 2.6663,1.40287 3.6485,2.38484 0.968,0.98217 1.8248,2.24453 2.3841,3.64758 0.5605,1.40287 0.8355,2.80593 0.8355,4.48938 0,1.68356 -0.275,3.08642 -0.8355,4.48937 z m -7.8553,-3.22661 c 1.1227,-0.13957 1.9643,-0.5624 2.6653,-1.26276 0.6928,-0.70097 1.1237,-1.68345 1.1237,-3.08651 0,-1.54315 -0.4176,-2.66543 -1.4039,-3.5071 -0.8354,-0.84156 -2.3851,-1.26277 -4.2089,-1.26277 h -6.1723 v 15.85306 h 2.9456 v -6.45342 h 2.105 l 3.9286,6.45342 h 3.0851 z m -1.5425,-2.38503 c -0.4179,0 -0.8355,0 -1.403,0 h -2.105 v -4.48937 h 2.105 c 0.4176,0 0.8355,0 1.403,0 0.4176,0 0.8354,0.14061 1.2613,0.28121 0.4176,0.13958 0.6927,0.42078 0.8355,0.70096 0.275,0.28223 0.275,0.70098 0.275,1.26257 0,0.56139 -0.1427,0.98218 -0.275,1.26287 -0.2751,0.28019 -0.5604,0.5624 -0.8355,0.70097 -0.4179,0.13958 -0.8355,0.28222 -1.2613,0.28222 z"
   id="path6-3"
   style="fill:#ffffff;stroke-width:1.40291822"
   inkscape:export-filename="C:\Users\suitedoalex\sites\intel-footer-logo-5.png"
   inkscape:export-xdpi="54.149849"
   inkscape:export-ydpi="54.149849" /></svg>