<?xml version="1.0" encoding="UTF-8" standalone="no"?>
<svg
   xmlns:dc="http://purl.org/dc/elements/1.1/"
   xmlns:cc="http://creativecommons.org/ns#"
   xmlns:rdf="http://www.w3.org/1999/02/22-rdf-syntax-ns#"
   xmlns:svg="http://www.w3.org/2000/svg"
   xmlns="http://www.w3.org/2000/svg"
   xmlns:sodipodi="http://sodipodi.sourceforge.net/DTD/sodipodi-0.dtd"
   xmlns:inkscape="http://www.inkscape.org/namespaces/inkscape"
   width="700"
   height="700"
   viewBox="0 0 699.99999 700.00001"
   version="1.1"
   id="svg28"
   sodipodi:docname="logitech-logo.svg"
   inkscape:version="0.92.1 r15371"
   inkscape:export-filename="C:\Users\alex\Downloads\logitech-logo.png"
   inkscape:export-xdpi="561.73999"
   inkscape:export-ydpi="561.73999">
  <metadata
     id="metadata32">
    <rdf:RDF>
      <cc:Work
         rdf:about="">
        <dc:format>image/svg+xml</dc:format>
        <dc:type
           rdf:resource="http://purl.org/dc/dcmitype/StillImage" />
        <dc:title>logitechg</dc:title>
      </cc:Work>
    </rdf:RDF>
  </metadata>
  <sodipodi:namedview
     pagecolor="#ffffff"
     bordercolor="#666666"
     borderopacity="1"
     objecttolerance="10"
     gridtolerance="10"
     guidetolerance="10"
     inkscape:pageopacity="0"
     inkscape:pageshadow="2"
     inkscape:window-width="1600"
     inkscape:window-height="838"
     id="namedview30"
     showgrid="false"
     inkscape:zoom="0.52304033"
     inkscape:cx="282.06962"
     inkscape:cy="436.00542"
     inkscape:window-x="-8"
     inkscape:window-y="-8"
     inkscape:window-maximized="1"
     inkscape:current-layer="Logo_1_"
     fit-margin-top="0"
     fit-margin-left="0"
     fit-margin-right="0"
     fit-margin-bottom="0" />
  <!-- Generator: Sketch 46.2 (44496) - http://www.bohemiancoding.com/sketch -->
  <title
     id="title2">logitechg</title>
  <desc
     id="desc4">Created with Sketch.</desc>
  <defs
     id="defs6" />
  <g
     id="Page-1"
     style="fill:none;fill-rule:evenodd;stroke:none;stroke-width:1"
     transform="translate(18.5,526.36073)">
    <g
       id="g25"
       transform="translate(-18,-6)">
      <g
         id="Framework-_x26_-Grid"
         transform="translate(18,6)"
         style="fill:#d35f5f">
        <g
           id="NAV_x2C_-Utility---Desktop"
           style="fill:#d35f5f">
          <g
             id="utility-nav"
             style="fill:#d35f5f">
            <g
               id="logitechg"
               style="fill:#d35f5f">
              <g
                 id="Layer_1_1_"
                 style="fill:#d35f5f">
                <g
                   id="Group"
                   style="fill:#d35f5f">
                  <g
                     id="Logo_1_"
                     style="fill:#d35f5f">
                    <path
                       d="m 173.5743,-151.62537 c -9.07449,0 -16.09992,-7.02543 -16.09992,-16.39266 0,-9.07451 7.02543,-16.09994 16.09992,-16.09994 9.07452,0 16.09995,7.02543 16.09995,16.09994 0,9.0745 -7.31816,16.39266 -16.09995,16.39266 z m 29.27262,-33.07804 v -11.1236 h -19.61265 c -3.21998,-1.46363 -6.43998,-1.75636 -9.65997,-1.75636 -16.97809,0 -30.15077,12.87996 -30.15077,29.85807 0,16.97809 13.17268,29.56532 29.85806,29.56532 16.68539,0 29.85805,-12.87994 29.85805,-29.56532 0,-5.85453 -1.75635,-11.1236 -4.68361,-15.22175 z m -94.55051,33.07804 c -9.074502,0 -16.099932,-7.02543 -16.099932,-16.39266 0,-9.07451 7.02543,-16.09994 16.099932,-16.09994 9.07451,0 16.09993,7.02543 16.09993,16.09994 0,9.0745 -6.73269,16.39266 -16.09993,16.39266 z m 0,-45.958 c -16.978106,0 -29.858055,12.87996 -29.858055,29.56534 0,16.68538 13.172668,29.85805 29.858055,29.85805 16.68537,0 29.85806,-12.87994 29.85806,-29.56532 0,-16.68538 -12.87996,-29.85807 -29.85806,-29.85807 z m -49.470697,57.95976 H 72.583836 V -219.2451 H 58.825713 c 0,0 0,79.62149 0,79.62149 z m 150.168437,0 h 13.75814 v -56.2034 h -13.75814 z m -35.41985,19.61264 c -9.07449,0 -16.09992,-7.02543 -16.09992,-16.09992 h -14.05085 c 0,16.97811 13.17268,29.56532 29.85806,29.56532 16.68539,0 30.15078,-12.87994 30.15078,-29.56532 h -13.75812 c -0.29273,9.36722 -7.31816,16.09992 -16.09995,16.09992 z m 100.99049,-53.56886 c 2.04909,-7.31816 7.31815,-11.41631 14.6363,-11.41631 7.31815,0 12.87995,4.09815 14.34358,11.41631 z m 15.22175,-24.00354 c -16.97811,0 -29.56532,12.87996 -29.56532,29.85807 0,16.97809 11.41631,28.97987 29.56532,28.97987 9.65996,0 18.73447,-3.80544 25.46716,-10.53813 l -9.65996,-9.65997 c -4.68361,4.68363 -9.65996,7.31816 -15.51447,7.31816 -7.90361,0 -13.46539,-4.68362 -15.22175,-11.41632 h 43.61617 v -3.21998 c 0,-18.44174 -12.00176,-31.3217 -28.68715,-31.3217 z m 123.53038,0 c -7.02543,0 -12.87994,2.34181 -16.97811,7.02543 v -28.97987 h -13.75813 v 79.62147 h 13.75813 v -30.4435 c 0,-8.19633 4.97634,-13.46541 13.4654,-13.46541 7.90359,0 12.29449,4.97635 12.29449,13.46541 v 30.4435 h 13.75813 v -32.7853 c 0.58544,-15.51449 -9.36724,-24.88173 -22.53991,-24.88173 z m -60.59429,13.75812 c 5.85453,0 10.53815,2.92726 14.34358,7.31816 l 9.65996,-9.65995 c -5.5618,-7.02543 -13.75813,-11.1236 -24.00354,-11.1236 -16.97811,0 -29.85805,12.87996 -29.85805,29.56534 0,16.68538 13.17267,29.56532 29.85805,29.56532 9.65995,0 18.44174,-4.68361 24.00354,-11.12358 l -9.65996,-9.65997 c -3.80543,4.09817 -8.78178,7.31816 -14.34358,7.31816 -9.0745,0 -15.51447,-7.02543 -15.51447,-16.09993 -0.58546,-9.07452 6.7327,-16.09995 15.51447,-16.09995 z m -101.86865,-29.27259 h -13.75812 v 17.27083 h -7.31815 v 12.29449 h 7.31815 v 43.61618 h 13.75812 v -43.61618 h 7.90359 v -12.29449 h -7.90359 z m -34.54167,-7.90361 c -4.97634,0 -9.07451,4.09817 -9.07451,9.65997 0,4.97634 4.09817,9.07449 9.07451,9.07449 5.56178,0 9.65995,-4.09815 9.65995,-9.07449 -0.58545,-5.5618 -4.6836,-9.65997 -9.65995,-9.65997 z"
                       id="Shape-5"
                       style="fill:#000000;fill-opacity:1;fill-rule:nonzero;stroke:none;stroke-width:2.92726016"
                       inkscape:export-filename="C:\Users\suitedoalex\sites\logitech-logo-18.png"
                       inkscape:export-xdpi="25.764896"
                       inkscape:export-ydpi="25.764896"
                       inkscape:connector-curvature="0" />
                    <path
                       d="m 528.59721,-232.31875 v 28.39444 c -22.24719,0 -39.81073,17.56355 -39.81073,39.81073 0,21.66173 17.56354,39.81074 39.81073,39.81074 v 28.394423 c -37.76165,0 -68.49789,-30.443503 -68.49789,-68.205163 0,-37.76166 30.73624,-68.20517 68.49789,-68.20517 z"
                       id="Shape-path-7"
                       inkscape:export-filename="C:\Users\suitedoalex\sites\logitech-logo-18.png"
                       inkscape:export-xdpi="25.764896"
                       inkscape:export-ydpi="25.764896"
                       inkscape:connector-curvature="0"
                       style="fill:#00b8fd;fill-opacity:1;fill-rule:evenodd;stroke:none;stroke-width:2.92726016" />
                    <polygon
                       transform="matrix(2.9272602,0,0,2.9272602,58.532985,-247.34679)"
                       id="polygon10-45"
                       points="186.4,19.5 165.5,19.5 165.5,29 176.8,29 176.8,40.3 186.4,40.3 "
                       inkscape:export-filename="C:\Users\suitedoalex\sites\logitech-logo-18.png"
                       inkscape:export-xdpi="25.764896"
                       inkscape:export-ydpi="25.764896"
                       style="fill:#00b8fd;fill-opacity:1;fill-rule:evenodd;stroke:none;stroke-width:1" />
                  </g>
                </g>
              </g>
            </g>
          </g>
        </g>
      </g>
    </g>
  </g>
</svg>
