<?xml version="1.0" encoding="UTF-8" standalone="no"?>
<svg
   xmlns:dc="http://purl.org/dc/elements/1.1/"
   xmlns:cc="http://creativecommons.org/ns#"
   xmlns:rdf="http://www.w3.org/1999/02/22-rdf-syntax-ns#"
   xmlns:svg="http://www.w3.org/2000/svg"
   xmlns="http://www.w3.org/2000/svg"
   xmlns:sodipodi="http://sodipodi.sourceforge.net/DTD/sodipodi-0.dtd"
   xmlns:inkscape="http://www.inkscape.org/namespaces/inkscape"
   viewBox="0 0 700 700"
   version="1.1"
   id="svg4"
   sodipodi:docname="nintendo-logo.svg"
   width="700"
   height="700"
   inkscape:version="0.92.4 (5da689c313, 2019-01-14)"
   inkscape:export-filename="C:\Users\suitedoalex\sites\nintendo-logo-0.png"
   inkscape:export-xdpi="561.73999"
   inkscape:export-ydpi="561.73999">
  <metadata
     id="metadata10">
    <rdf:RDF>
      <cc:Work
         rdf:about="">
        <dc:format>image/svg+xml</dc:format>
        <dc:type
           rdf:resource="http://purl.org/dc/dcmitype/StillImage" />
        <dc:title></dc:title>
      </cc:Work>
    </rdf:RDF>
  </metadata>
  <defs
     id="defs8" />
  <sodipodi:namedview
     pagecolor="#ffffff"
     bordercolor="#666666"
     borderopacity="1"
     objecttolerance="10"
     gridtolerance="10"
     guidetolerance="10"
     inkscape:pageopacity="0"
     inkscape:pageshadow="2"
     inkscape:window-width="1600"
     inkscape:window-height="837"
     id="namedview6"
     showgrid="false"
     inkscape:zoom="0.36117109"
     inkscape:cx="309.72825"
     inkscape:cy="213.36965"
     inkscape:window-x="-8"
     inkscape:window-y="-8"
     inkscape:window-maximized="1"
     inkscape:current-layer="svg4" />
  <path
     d="M 189.95505,362.25018 164.52449,318.61371 H 146.1509 v 62.55898 h 18.26376 v -43.6364 l 25.55193,43.6364 h 18.20597 v -62.54737 h -18.23194 z m 144.71434,-22.5869 v -6.19006 h -9.6087 v -8.41525 h -17.75227 v 8.42689 h -9.64918 v 6.1755 h 9.64342 v 41.51817 h 17.76958 v -41.51817 h 9.60869 z m -116.34194,41.51826 h 17.73783 v -41.59346 h -17.73783 v 41.61347 z m -0.0433,-49.78316 h 17.78118 v -12.78757 h -17.78118 z m 310.8713,5.33159 c -14.31626,0 -25.92476,10.4585 -25.92476,23.35582 0,12.89714 11.6085,23.36127 25.92476,23.36127 14.31623,0 25.92183,-10.45512 25.92183,-23.36127 0,-12.906 -11.6056,-23.35582 -25.92183,-23.35582 z m 7.10898,32.10912 c 0,6.6466 -3.69031,9.3744 -7.2477,9.3744 -3.55739,0 -7.27083,-2.73914 -7.27083,-9.3744 v -8.95852 -8.6695 c 0,-6.60031 3.71344,-9.31403 7.25061,-9.31403 3.53714,0 7.24483,2.71372 7.24483,9.31403 0,2.51705 0,7.18125 0.0173,8.85439 0.0173,0.10444 0.007,6.29707 0.007,8.78814 z m -56.31426,-27.19632 a 22.705445,22.705445 0 0 0 -10.03638,-3.71347 c -12.78177,-1.19045 -22.54074,10.79938 -22.54074,21.78073 a 22.179492,22.179492 0 0 0 12.13729,20.62785 20.277981,20.277981 0 0 0 20.41382,-1.56652 v 2.40717 h 17.53553 v -62.55321 h -17.50373 v 23.01745 z m 0.12412,18.52692 v 7.38065 c 0,6.42672 -4.19604,8.10869 -6.95874,8.10869 -2.81758,0 -6.93562,-1.68197 -6.93562,-8.10869 v -7.4039 -7.41535 c 0,-6.43266 4.13248,-8.0713 6.95582,-8.0713 2.75693,0 6.93562,1.63864 6.93562,8.0713 z m -202.485,-22.50626 a 20.772146,20.772146 0 0 0 -14.14573,6.27393 c -0.0173,-1.03171 0,-4.37523 0,-4.37523 h -17.62802 v 41.59921 h 17.60778 l -0.0173,-27.32063 a 8.360297,8.360297 0 0 1 8.42097,-7.65505 8.0481946,8.0481946 0 0 1 8.09157,7.65505 v 27.33482 h 17.62797 v -22.63304 a 19.633551,19.633551 0 0 0 -19.95721,-20.87906 z m 144.14214,0 a 20.772146,20.772146 0 0 0 -14.14285,6.27393 c -0.0202,-1.03171 0,-4.37523 0,-4.37523 h -17.5991 v 41.59921 h 17.60776 l -0.0173,-27.32063 a 8.360297,8.360297 0 0 1 8.42098,-7.65505 8.0481946,8.0481946 0 0 1 8.09153,7.65505 v 27.33482 h 17.62802 v -22.63304 a 19.630658,19.630658 0 0 0 -19.98903,-20.87906 z m -37.11995,22.89907 c 0,-12.90295 -11.75006,-23.58972 -26.17325,-23.58972 -14.42315,0 -26.11543,10.45835 -26.11543,23.35579 0,12.8971 11.69228,23.35839 26.11543,23.35839 a 25.910273,25.910273 0 0 0 25.16472,-17.06752 h -17.68004 v 2.52578 c 0,7.6062 -4.71909,9.29683 -7.33728,9.29683 -2.61821,0 -7.42111,-1.69063 -7.42111,-9.29683 v -8.59141 c 0,0 33.44696,0.0241 33.44696,0.017 z m -32.25057,-14.64561 a 7.0194129,7.0194129 0 0 1 12.47542,0 16.688806,16.688806 0 0 1 1.15594,8.16663 h -14.80752 a 16.593441,16.593441 0 0 1 1.17616,-8.16663 z m 209.76745,-19.56427 c 0,-2.04017 -1.42469,-3.06899 -4.2914,-3.06899 h -3.94462 v 10.66646 h 2.45636 v -4.36942 h 1.20217 l 1.91883,4.36654 h 2.71937 l -2.24252,-4.76825 a 2.8089211,2.8089211 0 0 0 2.18181,-2.82634 z m -4.59193,1.66462 h -1.18773 v -3.09511 h 1.07499 c 1.47094,0 2.1963,0.47397 2.1963,1.58942 -0.0117,1.05784 -0.67043,1.50569 -2.08067,1.50569 z m 0.0724,-8.90358 a 9.6462743,9.6462743 0 1 0 9.07985,9.63182 9.3659597,9.3659597 0 0 0 -9.07697,-9.64333 z m 0,17.41708 a 7.8025584,7.8025584 0 1 1 7.34016,-7.78526 7.5742615,7.5742615 0 0 1 -7.33728,7.78526 z M 537.83074,283.55709 H 162.17507 c -39.75836,-0.0984 -66.46624,30.22198 -66.46624,66.5645 0,36.34239 26.6443,66.31305 66.52115,66.32156 h 375.54004 c 39.87976,0 66.52115,-29.98485 66.52115,-66.32156 0,-36.33677 -26.70499,-66.64832 -66.46046,-66.5645 z m -0.18206,116.59313 H 162.34557 c -31.68997,0.11845 -50.94784,-22.44222 -50.94784,-50.12105 0,-27.67896 19.3619,-50.06357 50.94784,-50.12426 h 375.30306 c 31.57435,0.0636 50.94489,22.44245 50.94489,50.12426 0,27.68184 -19.24052,50.25402 -50.94489,50.13573 z"
     style="fill:#e60012;fill-opacity:1;fill-rule:evenodd;stroke-width:2.88983631"
     id="path2"
     inkscape:connector-curvature="0"
     inkscape:export-filename="C:\Users\suitedoalex\sites\nintendo-logo-5.png"
     inkscape:export-xdpi="132.13199"
     inkscape:export-ydpi="132.13199" />
  <rect
     style="fill:#e60012;fill-opacity:1;fill-rule:evenodd;stroke-width:1.4569732"
     id="rect828-9"
     width="679.73328"
     height="334.82407"
     x="10.133362"
     y="750.33972"
     inkscape:export-filename="C:\Users\suitedoalex\sites\nintendo-logo-4.png"
     inkscape:export-xdpi="98.862305"
     inkscape:export-ydpi="98.862305" />
  <path
     d="m 210.22667,928.45029 -22.20947,-38.1094 h -16.04637 v 54.63514 h 15.95045 v -38.10932 l 22.31547,38.10932 h 15.89997 v -54.62499 h -15.92266 z m 126.38455,-19.72601 v -5.406 h -8.39164 v -7.34938 h -15.50375 v 7.35955 h -8.42698 v 5.39329 h 8.42196 v 36.25935 h 15.51885 v -36.25935 h 8.39164 z m -101.60585,36.25945 h 15.49112 v -36.3251 h -15.49112 v 36.34263 z m -0.0377,-43.4775 h 15.52899 v -11.16787 h -15.52899 z m 271.49576,4.65629 c -12.50293,0 -22.64108,9.13381 -22.64108,20.39752 0,11.26354 10.13815,20.40227 22.64108,20.40227 12.50291,0 22.63852,-9.13081 22.63852,-20.40227 0,-11.2713 -10.13561,-20.39752 -22.63852,-20.39752 z m 6.20854,28.04213 c 0,5.80467 -3.22288,8.18703 -6.32968,8.18703 -3.10681,0 -6.3499,-2.39218 -6.3499,-8.18703 v -7.82383 -7.57141 c 0,-5.7643 3.24309,-8.1343 6.33223,-8.1343 3.08912,0 6.32719,2.37 6.32719,8.1343 0,2.19823 0,6.27166 0.0151,7.73288 0.0151,0.0912 0.006,5.49947 0.006,7.67503 z m -49.18139,-23.75159 a 19.82953,19.82953 0 0 0 -8.76515,-3.24313 c -11.1628,-1.03966 -19.68569,9.43152 -19.68569,19.02194 a 19.370196,19.370196 0 0 0 10.59996,18.01505 17.709534,17.709534 0 0 0 17.82817,-1.36804 v 2.10221 h 15.31445 v -54.63005 h -15.28668 v 20.10202 z m 0.1084,16.18025 v 6.44584 c 0,5.61271 -3.66456,7.08159 -6.07732,7.08159 -2.46071,0 -6.05716,-1.46888 -6.05716,-7.08159 v -6.46613 -6.47611 c 0,-5.61789 3.60907,-7.04898 6.0748,-7.04898 2.40772,0 6.05714,1.43109 6.05714,7.04898 z M 286.76099,906.97774 a 18.141107,18.141107 0 0 0 -12.35401,5.47927 c -0.0151,-0.90104 0,-3.82106 0,-3.82106 h -15.3952 v 36.33015 h 15.37753 l -0.0151,-23.86012 a 7.301366,7.301366 0 0 1 7.35435,-6.68545 7.0287951,7.0287951 0 0 1 7.06667,6.68545 v 23.87258 h 15.39519 v -19.76633 a 17.146728,17.146728 0 0 0 -17.42939,-18.23449 z m 125.88483,0 a 18.141107,18.141107 0 0 0 -12.3515,5.47927 c -0.0176,-0.90104 0,-3.82106 0,-3.82106 h -15.36996 v 36.33015 h 15.37753 l -0.0151,-23.86012 a 7.301366,7.301366 0 0 1 7.35436,-6.68545 7.0287951,7.0287951 0 0 1 7.06664,6.68545 v 23.87258 h 15.39523 v -19.76633 a 17.144202,17.144202 0 0 0 -17.45717,-18.23449 z m -32.41827,19.99864 c 0,-11.26864 -10.26177,-20.60181 -22.85808,-20.60181 -12.5963,0 -22.80762,9.13367 -22.80762,20.39751 0,11.26353 10.21132,20.39972 22.80762,20.39972 a 22.628429,22.628429 0 0 0 21.97729,-14.9057 h -15.44065 v 2.20591 c 0,6.64275 -4.12137,8.11923 -6.40793,8.11923 -2.28658,0 -6.48114,-1.47648 -6.48114,-8.11923 v -7.50322 c 0,0 29.21051,0.021 29.21051,0.0149 z m -28.16566,-12.79057 a 6.1303207,6.1303207 0 0 1 10.89527,0 14.574971,14.574971 0 0 1 1.00952,7.13222 h -12.93196 a 14.491684,14.491684 0 0 1 1.02717,-7.13222 z m 183.19792,-17.08623 c 0,-1.78175 -1.24425,-2.68026 -3.74785,-2.68026 h -3.44498 v 9.31543 h 2.14523 v -3.81599 h 1.0499 l 1.67579,3.81347 h 2.37493 l -1.95848,-4.1643 a 2.4531378,2.4531378 0 0 0 1.90546,-2.46835 z m -4.01031,1.45378 h -1.03729 v -2.70308 h 0.93883 c 1.28463,0 1.91811,0.41394 1.91811,1.38811 -0.0106,0.92385 -0.58552,1.31497 -1.81712,1.31497 z m 0.0632,-7.77584 a 8.4244591,8.4244591 0 1 0 7.92978,8.41184 8.1796498,8.1796498 0 0 0 -7.92727,-8.42189 z m 0,15.21101 a 6.8142716,6.8142716 0 1 1 6.41044,-6.79917 6.6148913,6.6148913 0 0 1 -6.40793,6.79917 z m -17.273,-46.26391 H 185.96534 c -34.7225,-0.086 -58.0475,26.394 -58.0475,58.13332 0,31.73919 23.26947,57.91371 58.09545,57.9211 h 327.97342 c 34.82851,0 58.09546,-26.18687 58.09546,-57.9211 0,-31.73429 -23.32249,-58.20652 -58.04245,-58.13332 z m -0.159,101.82524 H 186.1142 c -27.67604,0.10348 -44.49467,-19.59966 -44.49467,-43.77265 0,-24.17309 16.90948,-43.72242 44.49467,-43.77542 h 327.76647 c 27.57509,0.0555 44.49212,19.59984 44.49212,43.77542 0,24.17563 -16.80348,43.8887 -44.49212,43.78543 z"
     style="fill:#ffffff;fill-opacity:1;fill-rule:evenodd;stroke-width:2.52380419"
     id="path2-4"
     inkscape:connector-curvature="0"
     inkscape:export-filename="C:\Users\suitedoalex\sites\nintendo-logo-4.png"
     inkscape:export-xdpi="98.862305"
     inkscape:export-ydpi="98.862305" />
</svg>
