<?xml version="1.0" encoding="UTF-8" standalone="no"?>
<svg
   xmlns:dc="http://purl.org/dc/elements/1.1/"
   xmlns:cc="http://creativecommons.org/ns#"
   xmlns:rdf="http://www.w3.org/1999/02/22-rdf-syntax-ns#"
   xmlns:svg="http://www.w3.org/2000/svg"
   xmlns="http://www.w3.org/2000/svg"
   xmlns:sodipodi="http://sodipodi.sourceforge.net/DTD/sodipodi-0.dtd"
   xmlns:inkscape="http://www.inkscape.org/namespaces/inkscape"
   enable-background="new 0 0 974.7 179.7"
   version="1.1"
   viewBox="0 0 1785.9547 170.14156"
   xml:space="preserve"
   width="201.55434"
   height="41.659592"
   id="svg10"
   sodipodi:docname="nvidia-logo-2.svg"
   inkscape:version="0.92.2 (5c3e80d, 2017-08-06)"><metadata
     id="metadata16"><rdf:RDF><cc:Work
         rdf:about=""><dc:format>image/svg+xml</dc:format><dc:type
           rdf:resource="http://purl.org/dc/dcmitype/StillImage" /><dc:title>Artificial Intelligence Computing Leadership from NVIDIA</dc:title></cc:Work></rdf:RDF></metadata><defs
     id="defs14" /><sodipodi:namedview
     pagecolor="#ffffff"
     bordercolor="#666666"
     borderopacity="1"
     objecttolerance="10"
     gridtolerance="10"
     guidetolerance="10"
     inkscape:pageopacity="0"
     inkscape:pageshadow="2"
     inkscape:window-width="1600"
     inkscape:window-height="837"
     id="namedview12"
     showgrid="false"
     fit-margin-top="0"
     fit-margin-left="0"
     fit-margin-right="0"
     fit-margin-bottom="0"
     inkscape:zoom="2.0377532"
     inkscape:cx="223.58123"
     inkscape:cy="-18.69281"
     inkscape:window-x="-8"
     inkscape:window-y="-8"
     inkscape:window-maximized="1"
     inkscape:current-layer="svg10" /><title
     id="title2">Artificial Intelligence Computing Leadership from NVIDIA</title><path
     d="m 962.1,123.06035 v -2.7 h 1.7 c 0.9,0 2.2,0.1 2.2,1.2 0,1.1 -0.7,1.5 -1.8,1.5 h -2.1 m 0,1.9 h 1.2 l 2.7,4.7 h 2.9 l -3,-4.9 c 1.5,0.1 2.7,-1 2.8,-2.5 v -0.4 c 0,-2.6 -1.8,-3.4 -4.8,-3.4 h -4.3 v 11.2 h 2.5 v -4.7 m 12.6,-0.9 c 0,-6.6 -5.1,-10.4 -10.8,-10.4 -5.7,0 -10.8,3.8 -10.8,10.4 0,6.6 5.1,10.4 10.8,10.4 5.7,0 10.8,-3.8 10.8,-10.4 m -3.2,0 c 0.2,4.2 -3.1,7.8 -7.3,8 h -0.3 c -4.4,0.2 -8.1,-3.3 -8.3,-7.7 -0.2,-4.4 3.3,-8.1 7.7,-8.3 4.4,-0.2 8.1,3.3 8.3,7.7 -0.1,0.1 -0.1,0.2 -0.1,0.3 z"
     id="path4"
     inkscape:connector-curvature="0" /><path
     d="M 578.2,12.960348 V 130.96035 h 33.3 V 12.960348 Z m -262,-0.2 V 130.86035 h 33.6 V 39.160348 l 26.2,0.1 c 8.6,0 14.6,2.1 18.7,6.5 5.3,5.6 7.4,14.7 7.4,31.2 v 53.900002 h 32.6 V 65.660348 c 0,-46.6 -29.7,-52.9 -58.7,-52.9 z m 315.7,0.2 V 130.96035 h 54 c 28.8,0 38.2,-4.8 48.3,-15.5 7.2,-7.5 11.8,-24.100002 11.8,-42.200002 0,-16.6 -3.9,-31.4 -10.8,-40.6 -12.2,-16.5 -30,-19.7 -56.6,-19.7 z m 33,25.6 h 14.3 c 20.8,0 34.2,9.3 34.2,33.5 0,24.2 -13.4,33.600002 -34.2,33.600002 h -14.3 z m -134.7,-25.6 -27.8,93.500002 -26.6,-93.500002 h -36 l 38,118.000002 h 48 L 564.2,12.960348 Z M 761.6,130.96035 h 33.3 V 12.960348 H 761.6 Z M 855,12.960348 808.5,130.86035 h 32.8 l 7.4,-20.9 h 55 l 7,20.8 h 35.7 L 899.5,12.960348 Z m 21.6,21.5 20.2,55.2 h -41 z"
     id="path6"
     inkscape:connector-curvature="0" /><path
     d="m 101.3,32.560348 v -16.2 c 1.6,-0.1 3.2,-0.2 4.8,-0.2 44.4,-1.4 73.5,38.2 73.5,38.2 0,0 -31.4,43.6 -65.1,43.6 -4.5,0 -8.9,-0.7 -13.1,-2.1 v -49.2 c 17.3,2.1 20.8,9.7 31.1,27 l 23.1,-19.4 c 0,0 -16.9,-22.1 -45.3,-22.1 -3,-0.1 -6,0.1 -9,0.4 m 0,-53.6 v 24.2 l 4.8,-0.3 c 61.7,-2.1 102,50.6 102,50.6 0,0 -46.2,56.200002 -94.3,56.200002 -4.2,0 -8.3,-0.4 -12.4,-1.1 v 15 c 3.4,0.4 6.9,0.7 10.3,0.7 44.8,0 77.2,-22.9 108.6,-49.900002 5.2,4.2 26.5,14.3 30.9,18.7 -29.8,25.000002 -99.3,45.100002 -138.7,45.100002 -3.8,0 -7.4,-0.2 -11,-0.6 v 21.1 H 271.7 V -21.039652 Z m 0,116.9 v 12.800002 c -41.4,-7.4 -52.9,-50.500002 -52.9,-50.500002 0,0 19.9,-22 52.9,-25.6 v 14 h -0.1 c -17.3,-2.1 -30.9,14.1 -30.9,14.1 0,0 7.7,27.3 31,35.2 m -73.5,-39.5 c 0,0 24.5,-36.2 73.6,-40 v -13.2 c -54.4,4.4 -101.4,50.4 -101.4,50.4 0,0 26.6,77.000002 101.3,84.000002 v -14 c -54.8,-6.8 -73.5,-67.200002 -73.5,-67.200002 z"
     id="path8"
     inkscape:connector-curvature="0"
     style="fill:#76b900" /><path
     inkscape:connector-curvature="0"
     style="fill:#76b900;stroke-width:1.31151962"
     d="m 1455.54,-34.792542 v -21.246614 c 2.0984,-0.131169 4.197,-0.262308 6.2953,-0.262308 58.2316,-1.836134 96.3967,50.100038 96.3967,50.100038 0,0 -41.1816,57.182258 -85.3799,57.182258 -5.9019,0 -11.6725,-0.91806 -17.1809,-2.75419 v -64.526771 c 22.6893,2.754199 27.2796,12.721752 40.7882,35.411038 l 30.2961,-25.443475 c 0,0 -22.1646,-28.984593 -59.4118,-28.984593 -3.9346,-0.13114 -7.869,0.131149 -11.8037,0.524617 m 0,-70.297458 v 31.738774 l 6.2953,-0.393449 c 80.9208,-2.754198 133.7751,66.36288 133.7751,66.36288 0,0 -60.5923,73.707404 -123.6764,73.707404 -5.5084,0 -10.8856,-0.524607 -16.2628,-1.442662 v 19.672791 c 4.4591,0.52461 9.0495,0.91807 13.5086,0.91807 58.7561,0 101.2495,-30.033812 142.4311,-65.444844 6.82,5.508388 34.7553,18.754737 40.5259,24.525424 -39.0832,32.787988 -130.2339,59.149542 -181.9076,59.149542 -4.9838,0 -9.7054,-0.26231 -14.4268,-0.78692 v 27.67307 h 223.2207 V -105.09 Z m 0,153.316642 v 16.787454 c -54.2967,-9.705244 -69.3793,-66.231741 -69.3793,-66.231741 0,0 26.0993,-28.853429 69.3793,-33.574897 v 18.361265 h -0.1311 c -22.6892,-2.75418 -40.5259,18.492428 -40.5259,18.492428 0,0 10.0987,35.804481 40.657,46.165491 m -96.3966,-51.805019 c 0,0 32.1323,-47.477012 96.5278,-52.460779 v -17.31207 c -71.3467,5.770696 -132.9881,66.10059 -132.9881,66.10059 0,0 34.8864,100.987004 132.8569,110.167646 V 84.555738 C 1383.6688,75.6374 1359.1434,-3.578377 1359.1434,-3.578377 Z"
     id="path8-1-0" /><path
     style="fill:#000000;fill-opacity:1;stroke-width:0.74906886"
     inkscape:connector-curvature="0"
     d="m 1776.5164,255.51247 v -2.02249 h 1.2734 c 0.6742,0 1.6479,0.0749 1.6479,0.89888 0,0.82398 -0.5244,1.12361 -1.3483,1.12361 h -1.573 m 0,1.42323 h 0.8988 l 2.0225,3.52062 h 2.1723 l -2.2472,-3.67044 c 1.1237,0.0749 2.0225,-0.74906 2.0974,-1.87267 v -0.29963 c 0,-1.94757 -1.3483,-2.54683 -3.5955,-2.54683 h -3.221 v 8.38957 h 1.8727 v -3.52062 m 9.4382,-0.67417 c 0,-4.94385 -3.8202,-7.79031 -8.0899,-7.79031 -4.2697,0 -8.0899,2.84646 -8.0899,7.79031 0,4.94387 3.8202,7.79033 8.0899,7.79033 4.2697,0 8.0899,-2.84646 8.0899,-7.79033 m -2.397,0 c 0.1501,3.1461 -2.3222,5.84274 -5.4682,5.99256 h -0.225 c -3.296,0.14981 -6.0675,-2.47193 -6.2173,-5.76784 -0.15,-3.2959 2.4719,-6.06745 5.7678,-6.21726 3.296,-0.14982 6.0675,2.47192 6.2173,5.76783 -0.075,0.0749 -0.075,0.1498 -0.075,0.22471 z"
     id="path4-4-3" /><path
     style="fill:#000000;fill-opacity:1;stroke-width:0.74906886"
     inkscape:connector-curvature="0"
     d="m 1488.9487,173.03998 v 88.39013 h 24.944 v -88.39013 z m -196.256,-0.14981 v 88.46504 h 25.1687 v -68.68963 l 19.6256,0.0749 c 6.442,0 10.9364,1.57304 14.0076,4.86894 3.9701,4.19478 5.5431,11.01131 5.5431,23.37095 v 40.37482 h 24.4196 v -48.8393 c 0,-34.90661 -22.2473,-39.62574 -43.9703,-39.62574 z m 236.4811,0.14981 v 88.39013 h 40.4497 c 21.5733,0 28.6144,-3.59553 36.18,-11.61057 5.3934,-5.61801 8.8391,-18.05255 8.8391,-31.6107 0,-12.43455 -2.9214,-23.52077 -8.09,-30.4122 -9.1386,-12.35964 -22.4721,-14.75666 -42.3972,-14.75666 z m 24.7193,19.17617 h 10.7116 c 15.5807,0 25.6182,6.96634 25.6182,25.0938 0,18.12747 -10.0375,25.16872 -25.6182,25.16872 h -10.7116 z m -100.8997,-19.17617 -20.8241,70.03795 -19.9252,-70.03795 h -26.9665 l 28.4646,88.39013 h 35.9554 l 28.7642,-88.39013 z m 173.3347,88.39013 h 24.944 v -88.39013 h -24.944 z m 69.963,-88.39013 -34.8317,88.31523 h 24.5694 l 5.5432,-15.65555 h 41.1987 l 5.2436,15.58064 h 26.7417 l -35.1313,-88.24032 z m 16.1799,16.10498 15.1312,41.34861 h -30.7118 z"
     id="path6-0-2" /></svg>