<svg width="41" height="39" viewBox="0 0 41 39" fill="none" xmlns="http://www.w3.org/2000/svg">
<rect width="41" height="38.2222" rx="3" fill="#1A1A1A"/>
<path d="M30.9219 21.0781L32.9737 12.0503C33.1218 11.3985 32.6263 10.7778 31.9579 10.7778H14.9101L14.5122 8.8329C14.4131 8.34813 13.9865 8 13.4917 8H9.04167C8.46636 8 8 8.46636 8 9.04167V9.73611C8 10.3114 8.46636 10.7778 9.04167 10.7778H12.0748L15.1237 25.6838C14.3943 26.1033 13.9028 26.8898 13.9028 27.7917C13.9028 29.134 14.991 30.2222 16.3333 30.2222C17.6757 30.2222 18.7639 29.134 18.7639 27.7917C18.7639 27.1114 18.4841 26.4967 18.0337 26.0556H27.1329C26.6826 26.4967 26.4028 27.1114 26.4028 27.7917C26.4028 29.134 27.491 30.2222 28.8333 30.2222C30.1757 30.2222 31.2639 29.134 31.2639 27.7917C31.2639 26.8293 30.7045 25.9977 29.8933 25.6039L30.1327 24.5503C30.2809 23.8985 29.7854 23.2778 29.117 23.2778H17.4669L17.1828 21.8889H29.9061C30.3925 21.8889 30.8141 21.5523 30.9219 21.0781Z" fill="white"/>
</svg>
