<svg width="50" height="41" viewBox="0 0 50 41" fill="none" xmlns="http://www.w3.org/2000/svg">
<g clip-path="url(#clip0_84_42)">
<g clip-path="url(#clip1_84_42)">
<path d="M1.15545 2.11409C1.15544 0.574493 2.82211 -0.387755 4.15544 0.382045L24.4054 12.0734C25.7388 12.8432 25.7388 14.7677 24.4054 15.5375L4.15544 27.2288C2.82211 27.9986 1.15545 27.0364 1.15545 25.4968L1.15545 2.11409Z" fill="#F4F4F4"/>
<path d="M45.4988 0.382044C46.8322 -0.387757 48.4988 0.574494 48.4988 2.11409L48.4988 25.4968C48.4988 27.0364 46.8322 27.9986 45.4988 27.2288L25.2488 15.5375C23.9155 14.7677 23.9155 12.8432 25.2488 12.0734L45.4988 0.382044Z" fill="#F4F4F4"/>
<ellipse cx="25" cy="23.5" rx="25" ry="17.5" fill="#F4F4F4"/>
<path d="M32.816 35.584L26 31.48L26.72 29.992C26.832 30.2 26.912 30.416 26.96 30.64C27.008 30.88 27.032 31.12 27.032 31.36C27.048 31.952 26.976 32.528 26.816 33.088C26.672 33.648 26.408 34.152 26.024 34.6C25.656 35.048 25.168 35.4 24.56 35.656C23.952 35.928 23.184 36.064 22.256 36.064C21.136 36.064 20.168 35.808 19.352 35.296C18.536 34.784 17.904 34.104 17.456 33.256C17.024 32.408 16.808 31.472 16.808 30.448C16.808 29.696 16.96 28.92 17.264 28.12C17.584 27.336 18.008 26.696 18.536 26.2L20.648 27.52C20.296 27.808 19.976 28.216 19.688 28.744C19.416 29.272 19.28 29.824 19.28 30.4C19.28 30.944 19.4 31.44 19.64 31.888C19.896 32.352 20.256 32.72 20.72 32.992C21.2 33.28 21.768 33.424 22.424 33.424C23.288 33.424 23.968 33.168 24.464 32.656C24.976 32.16 25.232 31.464 25.232 30.568C25.232 30.104 25.2 29.72 25.136 29.416C25.072 29.112 25 28.84 24.92 28.6L24.992 28.504L30.68 32.056L30.368 32.824V27.208H32.816V35.584Z" fill="#242424"/>
<path d="M16.864 19.408C16.864 20.208 16.648 20.968 16.216 21.688C15.784 22.408 15.184 23 14.416 23.464C13.648 23.912 12.784 24.136 11.824 24.136C10.656 24.136 9.656 23.872 8.824 23.344C7.992 22.816 7.352 22.128 6.904 21.28C6.44 20.416 6.208 19.504 6.208 18.544C6.208 17.456 6.448 16.48 6.928 15.616C7.408 14.752 8.072 14.064 8.92 13.552C9.768 13.04 10.736 12.784 11.824 12.784C13.088 12.784 14.24 13.016 15.28 13.48C16.304 13.944 17.24 14.56 18.088 15.328C18.92 16.096 19.688 16.944 20.392 17.872C21.08 18.8 21.728 19.728 22.336 20.656L20.464 22.36C19.808 21.032 19.112 19.88 18.376 18.904C17.624 17.928 16.872 17.168 16.12 16.624C15.368 16.064 14.656 15.744 13.984 15.664L14.008 14.968C14.92 15.432 15.624 16 16.12 16.672C16.616 17.328 16.864 18.24 16.864 19.408ZM14.704 18.448C14.704 17.568 14.448 16.84 13.936 16.264C13.408 15.688 12.744 15.4 11.944 15.4H11.464C10.92 15.416 10.432 15.56 10 15.832C9.552 16.104 9.192 16.464 8.92 16.912C8.648 17.36 8.512 17.872 8.512 18.448C8.512 19.008 8.64 19.52 8.896 19.984C9.152 20.448 9.52 20.816 10 21.088C10.464 21.344 11.016 21.472 11.656 21.472C12.264 21.472 12.8 21.336 13.264 21.064C13.728 20.792 14.088 20.432 14.344 19.984C14.584 19.52 14.704 19.008 14.704 18.448Z" fill="#242424"/>
<path d="M33.136 17.592C33.136 16.792 33.352 16.032 33.784 15.312C34.216 14.592 34.816 14 35.584 13.536C36.352 13.088 37.216 12.864 38.176 12.864C39.344 12.864 40.344 13.128 41.176 13.656C42.008 14.184 42.648 14.872 43.096 15.72C43.56 16.584 43.792 17.496 43.792 18.456C43.792 19.544 43.552 20.52 43.072 21.384C42.592 22.248 41.928 22.936 41.08 23.448C40.232 23.96 39.264 24.216 38.176 24.216C36.912 24.216 35.76 23.984 34.72 23.52C33.696 23.056 32.76 22.44 31.912 21.672C31.08 20.904 30.312 20.056 29.608 19.128C28.92 18.2 28.272 17.272 27.664 16.344L29.536 14.64C30.192 15.968 30.888 17.12 31.624 18.096C32.376 19.072 33.128 19.832 33.88 20.376C34.632 20.936 35.344 21.256 36.016 21.336L35.992 22.032C35.08 21.568 34.376 21 33.88 20.328C33.384 19.672 33.136 18.76 33.136 17.592ZM35.296 18.552C35.296 19.432 35.552 20.16 36.064 20.736C36.592 21.312 37.256 21.6 38.056 21.6H38.536C39.08 21.584 39.568 21.44 40 21.168C40.448 20.896 40.808 20.536 41.08 20.088C41.352 19.64 41.488 19.128 41.488 18.552C41.488 17.992 41.36 17.48 41.104 17.016C40.848 16.552 40.48 16.184 40 15.912C39.536 15.656 38.984 15.528 38.344 15.528C37.736 15.528 37.2 15.664 36.736 15.936C36.272 16.208 35.912 16.568 35.656 17.016C35.416 17.48 35.296 17.992 35.296 18.552Z" fill="#242424"/>
</g>
</g>
<defs>
<clipPath id="clip0_84_42">
<rect width="50" height="41" fill="white"/>
</clipPath>
<clipPath id="clip1_84_42">
<rect width="50" height="41" fill="white"/>
</clipPath>
</defs>
</svg>
