<svg width="100" height="94" viewBox="0 0 100 94" fill="none" xmlns="http://www.w3.org/2000/svg">
<g clip-path="url(#clip0_52_234)">
<rect width="100" height="93.5" rx="4" fill="white"/>
<mask id="mask0_52_234" style="mask-type:luminance" maskUnits="userSpaceOnUse" x="11" y="14" width="78" height="66">
<path d="M88.8889 14.1111H11.1111V79.3889H88.8889V14.1111Z" fill="white"/>
</mask>
<g mask="url(#mask0_52_234)">
<path d="M49.9999 75.2222C69.1765 75.2222 84.7222 64.3402 84.7222 50.9166C84.7222 37.4931 69.1765 26.6111 49.9999 26.6111C30.8234 26.6111 15.2777 37.4931 15.2777 50.9166C15.2777 64.3402 30.8234 75.2222 49.9999 75.2222Z" fill="#1A1A1A"/>
<path d="M16.8824 21.3529C16.8824 19.2146 19.1973 17.878 21.0491 18.9472L49.1741 35.1853C51.0261 36.2544 51.0261 38.9273 49.1741 39.9965L21.0491 56.2344C19.1973 57.3036 16.8824 55.9672 16.8824 53.8289V21.3529Z" fill="#1A1A1A"/>
<path d="M78.4705 18.7297C80.3225 17.6605 82.6372 18.9969 82.6372 21.1353V53.6112C82.6372 55.7496 80.3225 57.0861 78.4705 56.0169L50.3455 39.7789C48.4937 38.7097 48.4937 36.0368 50.3455 34.9676L78.4705 18.7297Z" fill="#1A1A1A"/>
<path d="M60.8555 67.7L51.3889 62L52.3889 59.9333C52.5444 60.2222 52.6555 60.5222 52.7222 60.8333C52.7889 61.1666 52.8222 61.5 52.8222 61.8333C52.8444 62.6555 52.7444 63.4555 52.5222 64.2333C52.3222 65.0111 51.9555 65.7111 51.4222 66.3333C50.9111 66.9555 50.2333 67.4444 49.3889 67.8C48.5444 68.1777 47.4777 68.3666 46.1889 68.3666C44.6333 68.3666 43.2889 68.0111 42.1555 67.3C41.0222 66.5888 40.1444 65.6444 39.5222 64.4666C38.9222 63.2888 38.6222 61.9888 38.6222 60.5666C38.6222 59.5222 38.8333 58.4444 39.2555 57.3333C39.7 56.2444 40.2889 55.3555 41.0222 54.6666L43.9555 56.5C43.4666 56.9 43.0222 57.4666 42.6222 58.2C42.2444 58.9333 42.0555 59.7 42.0555 60.5C42.0555 61.2555 42.2222 61.9444 42.5555 62.5666C42.9111 63.2111 43.4111 63.7222 44.0555 64.1C44.7222 64.5 45.5111 64.7 46.4222 64.7C47.6222 64.7 48.5666 64.3444 49.2555 63.6333C49.9666 62.9444 50.3222 61.9777 50.3222 60.7333C50.3222 60.0888 50.2777 59.5555 50.1889 59.1333C50.1 58.7111 50 58.3333 49.8889 58L49.9889 57.8666L57.8889 62.8L57.4555 63.8666V56.0666H60.8555V67.7Z" fill="white"/>
<path d="M38.6999 45.2333C38.6999 46.3444 38.3999 47.4 37.7999 48.4C37.1999 49.4 36.3666 50.2222 35.2999 50.8667C34.2332 51.4889 33.0332 51.8 31.6999 51.8C30.0777 51.8 28.6888 51.4333 27.5332 50.7C26.3777 49.9667 25.4888 49.0111 24.8666 47.8333C24.2221 46.6333 23.8999 45.3667 23.8999 44.0333C23.8999 42.5222 24.2332 41.1667 24.8999 39.9667C25.5666 38.7667 26.4888 37.8111 27.6666 37.1C28.8443 36.3889 30.1888 36.0333 31.6999 36.0333C33.4555 36.0333 35.0555 36.3555 36.4999 37C37.9221 37.6444 39.2221 38.5 40.3999 39.5667C41.5555 40.6333 42.6221 41.8111 43.5999 43.1C44.5555 44.3889 45.4555 45.6778 46.2999 46.9667L43.6999 49.3333C42.7888 47.4889 41.8221 45.8889 40.7999 44.5333C39.7555 43.1778 38.711 42.1222 37.6666 41.3667C36.6221 40.5889 35.6332 40.1444 34.6999 40.0333L34.7332 39.0667C35.9999 39.7111 36.9777 40.5 37.6666 41.4333C38.3555 42.3444 38.6999 43.6111 38.6999 45.2333ZM35.6999 43.9C35.6999 42.6778 35.3443 41.6667 34.6332 40.8667C33.8999 40.0667 32.9777 39.6667 31.8666 39.6667H31.1999C30.4443 39.6889 29.7666 39.8889 29.1666 40.2667C28.5443 40.6444 28.0443 41.1444 27.6666 41.7667C27.2888 42.3889 27.0999 43.1 27.0999 43.9C27.0999 44.6778 27.2777 45.3889 27.6332 46.0333C27.9888 46.6778 28.4999 47.1889 29.1666 47.5667C29.811 47.9222 30.5777 48.1 31.4666 48.1C32.311 48.1 33.0555 47.9111 33.6999 47.5333C34.3443 47.1555 34.8443 46.6555 35.1999 46.0333C35.5332 45.3889 35.6999 44.6778 35.6999 43.9Z" fill="white"/>
<path d="M61.3 42.7111C61.3 41.6 61.6 40.5444 62.2 39.5444C62.8 38.5444 63.6333 37.7222 64.7 37.0777C65.7666 36.4555 66.9666 36.1444 68.2999 36.1444C69.9222 36.1444 71.3111 36.5111 72.4666 37.2444C73.6222 37.9777 74.5111 38.9333 75.1333 40.1111C75.7777 41.3111 76.1 42.5777 76.1 43.9111C76.1 45.4222 75.7666 46.7777 75.1 47.9777C74.4333 49.1777 73.5111 50.1333 72.3333 50.8444C71.1555 51.5555 69.8111 51.9111 68.2999 51.9111C66.5444 51.9111 64.9444 51.5889 63.5 50.9444C62.0777 50.3 60.7777 49.4444 59.5999 48.3777C58.4444 47.3111 57.3777 46.1333 56.4 44.8444C55.4444 43.5555 54.5444 42.2666 53.7 40.9777L56.2999 38.6111C57.2111 40.4555 58.1777 42.0555 59.2 43.4111C60.2444 44.7666 61.2888 45.8222 62.3333 46.5777C63.3777 47.3555 64.3666 47.8 65.2999 47.9111L65.2666 48.8777C64 48.2333 63.0222 47.4444 62.3333 46.5111C61.6444 45.6 61.3 44.3333 61.3 42.7111ZM64.3 44.0444C64.3 45.2666 64.6555 46.2777 65.3666 47.0777C66.0999 47.8777 67.0222 48.2777 68.1333 48.2777H68.8C69.5555 48.2555 70.2333 48.0555 70.8333 47.6777C71.4555 47.3 71.9555 46.8 72.3333 46.1777C72.7111 45.5555 72.9 44.8444 72.9 44.0444C72.9 43.2666 72.7222 42.5555 72.3666 41.9111C72.0111 41.2666 71.5 40.7555 70.8333 40.3777C70.1888 40.0222 69.4222 39.8444 68.5333 39.8444C67.6888 39.8444 66.9444 40.0333 66.3 40.4111C65.6555 40.7889 65.1555 41.2889 64.7999 41.9111C64.4666 42.5555 64.3 43.2666 64.3 44.0444Z" fill="white"/>
</g>
</g>
<defs>
<clipPath id="clip0_52_234">
<rect width="100" height="93.5" rx="4" fill="white"/>
</clipPath>
</defs>
</svg>
